<svg id="visual" viewBox="0 0 960 540" width="960" height="540" xmlns="http://www.w3.org/2000/svg" xmlns:xlink="http://www.w3.org/1999/xlink" version="1.1"><rect x="0" y="0" width="960" height="540" fill="#001220"></rect><defs><linearGradient id="grad1_0" x1="43.8%" y1="0%" x2="100%" y2="100%"><stop offset="14.444444444444446%" stop-color="#001220" stop-opacity="1"></stop><stop offset="85.55555555555554%" stop-color="#001220" stop-opacity="1"></stop></linearGradient></defs><defs><linearGradient id="grad2_0" x1="0%" y1="0%" x2="56.3%" y2="100%"><stop offset="14.444444444444446%" stop-color="#001220" stop-opacity="1"></stop><stop offset="85.55555555555554%" stop-color="#001220" stop-opacity="1"></stop></linearGradient></defs><g transform="translate(960, 0)"><path d="M0 513C-22.2 495 -44.4 477 -67.9 472.1C-91.4 467.3 -116.3 475.7 -138.6 472.1C-160.9 468.4 -180.7 452.8 -200.6 439.4C-220.6 425.9 -240.9 414.8 -256.3 398.8C-271.7 382.7 -282.2 361.7 -305.8 352.9C-329.4 344.2 -366.1 347.6 -387.7 335.9C-409.3 324.3 -416 297.4 -427.4 274.6C-438.7 251.9 -454.8 233.2 -458.5 209.4C-462.1 185.5 -453.3 156.5 -449 131.9C-444.7 107.2 -444.9 86.9 -456.3 65.6C-467.7 44.4 -490.4 22.2 -513 0L0 0Z" fill="#009473"></path></g><g transform="translate(0, 540)"><path d="M0 -513C22.8 -497.8 45.6 -482.6 68.5 -476.1C91.3 -469.6 114.3 -471.7 138.3 -471.1C162.4 -470.5 187.5 -467.3 209 -457.5C230.4 -447.8 248.2 -431.6 270.3 -420.6C292.4 -409.6 318.8 -403.8 335.3 -386.9C351.8 -370.1 358.3 -342.3 368.1 -318.9C377.8 -295.5 390.6 -276.6 397.9 -255.7C405.2 -234.8 406.9 -211.9 425.7 -194.4C444.5 -176.9 480.5 -164.7 492.2 -144.5C504 -124.3 491.5 -96 491 -70.6C490.4 -45.2 501.7 -22.6 513 0L0 0Z" fill="#009473"></path></g></svg>