<svg id="visual" viewBox="0 0 960 540" width="960" height="540" xmlns="http://www.w3.org/2000/svg" xmlns:xlink="http://www.w3.org/1999/xlink" version="1.1"><rect x="0" y="0" width="960" height="540" fill="#001220"></rect><defs><linearGradient id="grad1_0" x1="43.8%" y1="0%" x2="100%" y2="100%"><stop offset="14.444444444444446%" stop-color="#fbae3c" stop-opacity="1"></stop><stop offset="85.55555555555554%" stop-color="#fbae3c" stop-opacity="1"></stop></linearGradient></defs><defs><linearGradient id="grad1_1" x1="43.8%" y1="0%" x2="100%" y2="100%"><stop offset="14.444444444444446%" stop-color="#fbae3c" stop-opacity="1"></stop><stop offset="85.55555555555554%" stop-color="#cc5867" stop-opacity="1"></stop></linearGradient></defs><defs><linearGradient id="grad1_2" x1="43.8%" y1="0%" x2="100%" y2="100%"><stop offset="14.444444444444446%" stop-color="#593762" stop-opacity="1"></stop><stop offset="85.55555555555554%" stop-color="#cc5867" stop-opacity="1"></stop></linearGradient></defs><defs><linearGradient id="grad1_3" x1="43.8%" y1="0%" x2="100%" y2="100%"><stop offset="14.444444444444446%" stop-color="#593762" stop-opacity="1"></stop><stop offset="85.55555555555554%" stop-color="#001220" stop-opacity="1"></stop></linearGradient></defs><defs><linearGradient id="grad2_0" x1="0%" y1="0%" x2="56.3%" y2="100%"><stop offset="14.444444444444446%" stop-color="#fbae3c" stop-opacity="1"></stop><stop offset="85.55555555555554%" stop-color="#fbae3c" stop-opacity="1"></stop></linearGradient></defs><defs><linearGradient id="grad2_1" x1="0%" y1="0%" x2="56.3%" y2="100%"><stop offset="14.444444444444446%" stop-color="#cc5867" stop-opacity="1"></stop><stop offset="85.55555555555554%" stop-color="#fbae3c" stop-opacity="1"></stop></linearGradient></defs><defs><linearGradient id="grad2_2" x1="0%" y1="0%" x2="56.3%" y2="100%"><stop offset="14.444444444444446%" stop-color="#cc5867" stop-opacity="1"></stop><stop offset="85.55555555555554%" stop-color="#593762" stop-opacity="1"></stop></linearGradient></defs><defs><linearGradient id="grad2_3" x1="0%" y1="0%" x2="56.3%" y2="100%"><stop offset="14.444444444444446%" stop-color="#001220" stop-opacity="1"></stop><stop offset="85.55555555555554%" stop-color="#593762" stop-opacity="1"></stop></linearGradient></defs><g transform="translate(960, 0)"><path d="M0 513C-22.6 492.6 -45.2 472.3 -66 459.3C-86.8 446.3 -105.8 440.6 -130.4 444.2C-155.1 447.9 -185.3 461 -209.8 459.4C-234.3 457.7 -253 441.4 -276.3 429.9C-299.5 418.4 -327.2 411.7 -335.9 387.7C-344.7 363.7 -334.6 322.5 -349.2 302.5C-363.7 282.6 -402.9 284.1 -417.3 268.2C-431.7 252.2 -421.3 218.9 -426.6 194.8C-432 170.7 -453 155.8 -464.4 136.4C-475.8 116.9 -477.5 93.1 -484 69.6C-490.5 46.1 -501.8 23.1 -513 0L0 0Z" fill="#232745"></path><path d="M0 384.8C-17 369.5 -33.9 354.2 -49.5 344.5C-65.1 334.7 -79.4 330.4 -97.8 333.2C-116.3 335.9 -139 345.7 -157.3 344.5C-175.7 343.3 -189.8 331 -207.2 322.4C-224.6 313.8 -245.4 308.8 -252 290.8C-258.5 272.8 -251 241.8 -261.9 226.9C-272.8 212 -302.1 213.1 -312.9 201.1C-323.7 189.2 -316 164.2 -320 146.1C-324 128 -339.8 116.8 -348.3 102.3C-356.8 87.7 -358.1 69.8 -363 52.2C-367.9 34.6 -376.3 17.3 -384.7 0L0 0Z" fill="#96446e"></path><path d="M0 256.5C-11.3 246.3 -22.6 236.1 -33 229.6C-43.4 223.1 -52.9 220.3 -65.2 222.1C-77.5 224 -92.6 230.5 -104.9 229.7C-117.1 228.9 -126.5 220.7 -138.1 214.9C-149.7 209.2 -163.6 205.8 -168 193.8C-172.4 181.9 -167.3 161.2 -174.6 151.3C-181.8 141.3 -201.4 142 -208.6 134.1C-215.8 126.1 -210.6 109.5 -213.3 97.4C-216 85.4 -226.5 77.9 -232.2 68.2C-237.9 58.5 -238.8 46.5 -242 34.8C-245.3 23.1 -250.9 11.5 -256.5 0L0 0Z" fill="#f17c53"></path><path d="M0 128.3C-5.7 123.2 -11.3 118.1 -16.5 114.8C-21.7 111.6 -26.5 110.1 -32.6 111.1C-38.8 112 -46.3 115.2 -52.4 114.8C-58.6 114.4 -63.3 110.3 -69.1 107.5C-74.9 104.6 -81.8 102.9 -84 96.9C-86.2 90.9 -83.7 80.6 -87.3 75.6C-90.9 70.7 -100.7 71 -104.3 67C-107.9 63.1 -105.3 54.7 -106.7 48.7C-108 42.7 -113.3 38.9 -116.1 34.1C-118.9 29.2 -119.4 23.3 -121 17.4C-122.6 11.5 -125.4 5.8 -128.2 0L0 0Z" fill="#fbae3c"></path></g><g transform="translate(0, 540)"><path d="M0 -513C24.2 -502.6 48.3 -492.1 68.6 -477.1C88.9 -462.1 105.3 -442.5 130.2 -443.3C155 -444.1 188.4 -465.4 210.2 -460.3C232 -455.2 242.4 -423.7 262.8 -408.8C283.1 -394 313.5 -395.6 330 -380.9C346.6 -366.2 349.2 -335 365 -316.3C380.8 -297.6 409.9 -291.3 429.9 -276.3C449.9 -261.2 461 -237.5 466.6 -213.1C472.3 -188.7 472.6 -163.7 477.8 -140.3C483 -116.9 493.2 -95 499.9 -71.9C506.5 -48.7 509.8 -24.4 513 0L0 0Z" fill="#232745"></path><path d="M0 -384.7C18.1 -376.9 36.2 -369.1 51.4 -357.8C66.7 -346.6 79 -331.8 97.6 -332.5C116.3 -333.1 141.3 -349 157.6 -345.2C174 -341.4 181.8 -317.8 197.1 -306.6C212.3 -295.5 235.1 -296.7 247.5 -285.7C259.9 -274.6 261.9 -251.3 273.8 -237.2C285.6 -223.2 307.4 -218.5 322.4 -207.2C337.4 -195.9 345.7 -178.1 350 -159.8C354.2 -141.5 354.5 -122.8 358.4 -105.2C362.3 -87.7 369.9 -71.2 374.9 -53.9C379.9 -36.6 382.3 -18.3 384.8 0L0 0Z" fill="#96446e"></path><path d="M0 -256.5C12.1 -251.3 24.2 -246.1 34.3 -238.5C44.4 -231 52.6 -221.2 65.1 -221.6C77.5 -222.1 94.2 -232.7 105.1 -230.1C116 -227.6 121.2 -211.9 131.4 -204.4C141.6 -197 156.8 -197.8 165 -190.4C173.3 -183.1 174.6 -167.5 182.5 -158.1C190.4 -148.8 204.9 -145.6 214.9 -138.1C225 -130.6 230.5 -118.7 233.3 -106.6C236.2 -94.4 236.3 -81.9 238.9 -70.2C241.5 -58.4 246.6 -47.5 249.9 -35.9C253.3 -24.4 254.9 -12.2 256.5 0L0 0Z" fill="#f17c53"></path><path d="M0 -128.2C6 -125.6 12.1 -123 17.1 -119.3C22.2 -115.5 26.3 -110.6 32.5 -110.8C38.8 -111 47.1 -116.3 52.5 -115.1C58 -113.8 60.6 -105.9 65.7 -102.2C70.8 -98.5 78.4 -98.9 82.5 -95.2C86.6 -91.5 87.3 -83.8 91.3 -79.1C95.2 -74.4 102.5 -72.8 107.5 -69.1C112.5 -65.3 115.2 -59.4 116.7 -53.3C118.1 -47.2 118.2 -40.9 119.5 -35.1C120.8 -29.2 123.3 -23.7 125 -18C126.6 -12.2 127.4 -6.1 128.3 0L0 0Z" fill="#fbae3c"></path></g></svg>