<svg id="visual" viewBox="0 0 900 600" width="900" height="600" xmlns="http://www.w3.org/2000/svg" xmlns:xlink="http://www.w3.org/1999/xlink" version="1.1"><rect x="0" y="0" width="900" height="600" fill="#001220"></rect><path d="M0 385L21.5 389.7C43 394.3 86 403.7 128.8 405C171.7 406.3 214.3 399.7 257.2 403.5C300 407.3 343 421.7 385.8 415.5C428.7 409.3 471.3 382.7 514.2 383.3C557 384 600 412 642.8 426.3C685.7 440.7 728.3 441.3 771.2 439.3C814 437.3 857 432.7 878.5 430.3L900 428L900 601L878.5 601C857 601 814 601 771.2 601C728.3 601 685.7 601 642.8 601C600 601 557 601 514.2 601C471.3 601 428.7 601 385.8 601C343 601 300 601 257.2 601C214.3 601 171.7 601 128.8 601C86 601 43 601 21.5 601L0 601Z" fill="#fa7268"></path><path d="M0 408L21.5 413.2C43 418.3 86 428.7 128.8 430.5C171.7 432.3 214.3 425.7 257.2 418.3C300 411 343 403 385.8 399.7C428.7 396.3 471.3 397.7 514.2 397.5C557 397.3 600 395.7 642.8 403.7C685.7 411.7 728.3 429.3 771.2 440.3C814 451.3 857 455.7 878.5 457.8L900 460L900 601L878.5 601C857 601 814 601 771.2 601C728.3 601 685.7 601 642.8 601C600 601 557 601 514.2 601C471.3 601 428.7 601 385.8 601C343 601 300 601 257.2 601C214.3 601 171.7 601 128.8 601C86 601 43 601 21.5 601L0 601Z" fill="#ef5f67"></path><path d="M0 481L21.5 482.8C43 484.7 86 488.3 128.8 486.3C171.7 484.3 214.3 476.7 257.2 474C300 471.3 343 473.7 385.8 473.7C428.7 473.7 471.3 471.3 514.2 468C557 464.7 600 460.3 642.8 467C685.7 473.7 728.3 491.3 771.2 498.8C814 506.3 857 503.7 878.5 502.3L900 501L900 601L878.5 601C857 601 814 601 771.2 601C728.3 601 685.7 601 642.8 601C600 601 557 601 514.2 601C471.3 601 428.7 601 385.8 601C343 601 300 601 257.2 601C214.3 601 171.7 601 128.8 601C86 601 43 601 21.5 601L0 601Z" fill="#e34c67"></path><path d="M0 483L21.5 487.7C43 492.3 86 501.7 128.8 511.5C171.7 521.3 214.3 531.7 257.2 528.3C300 525 343 508 385.8 501C428.7 494 471.3 497 514.2 505.3C557 513.7 600 527.3 642.8 530.5C685.7 533.7 728.3 526.3 771.2 522.7C814 519 857 519 878.5 519L900 519L900 601L878.5 601C857 601 814 601 771.2 601C728.3 601 685.7 601 642.8 601C600 601 557 601 514.2 601C471.3 601 428.7 601 385.8 601C343 601 300 601 257.2 601C214.3 601 171.7 601 128.8 601C86 601 43 601 21.5 601L0 601Z" fill="#d53867"></path><path d="M0 547L21.5 543.5C43 540 86 533 128.8 533.7C171.7 534.3 214.3 542.7 257.2 545C300 547.3 343 543.7 385.8 542.3C428.7 541 471.3 542 514.2 542.8C557 543.7 600 544.3 642.8 545.8C685.7 547.3 728.3 549.7 771.2 547C814 544.3 857 536.7 878.5 532.8L900 529L900 601L878.5 601C857 601 814 601 771.2 601C728.3 601 685.7 601 642.8 601C600 601 557 601 514.2 601C471.3 601 428.7 601 385.8 601C343 601 300 601 257.2 601C214.3 601 171.7 601 128.8 601C86 601 43 601 21.5 601L0 601Z" fill="#c62368"></path></svg>