<svg id="visual" viewBox="0 0 960 540" width="960" height="540" xmlns="http://www.w3.org/2000/svg" xmlns:xlink="http://www.w3.org/1999/xlink" version="1.1"><path d="M0 71L14.5 74.7C29 78.3 58 85.7 87.2 89.3C116.3 93 145.7 93 174.8 92C204 91 233 89 262 83.5C291 78 320 69 349 69C378 69 407 78 436.2 83.5C465.3 89 494.7 91 523.8 86.5C553 82 582 71 611 67.3C640 63.7 669 67.3 698 68.3C727 69.3 756 67.7 785.2 68.7C814.3 69.7 843.7 73.3 872.8 74.2C902 75 931 73 945.5 72L960 71L960 0L945.5 0C931 0 902 0 872.8 0C843.7 0 814.3 0 785.2 0C756 0 727 0 698 0C669 0 640 0 611 0C582 0 553 0 523.8 0C494.7 0 465.3 0 436.2 0C407 0 378 0 349 0C320 0 291 0 262 0C233 0 204 0 174.8 0C145.7 0 116.3 0 87.2 0C58 0 29 0 14.5 0L0 0Z" fill="#93b5eb"></path><path d="M0 195L14.5 203.2C29 211.3 58 227.7 87.2 228.7C116.3 229.7 145.7 215.3 174.8 211.7C204 208 233 215 262 221.3C291 227.7 320 233.3 349 237C378 240.7 407 242.3 436.2 246.8C465.3 251.3 494.7 258.7 523.8 251.5C553 244.3 582 222.7 611 221.7C640 220.7 669 240.3 698 240.3C727 240.3 756 220.7 785.2 218C814.3 215.3 843.7 229.7 872.8 227C902 224.3 931 204.7 945.5 194.8L960 185L960 69L945.5 70C931 71 902 73 872.8 72.2C843.7 71.3 814.3 67.7 785.2 66.7C756 65.7 727 67.3 698 66.3C669 65.3 640 61.7 611 65.3C582 69 553 80 523.8 84.5C494.7 89 465.3 87 436.2 81.5C407 76 378 67 349 67C320 67 291 76 262 81.5C233 87 204 89 174.8 90C145.7 91 116.3 91 87.2 87.3C58 83.7 29 76.3 14.5 72.7L0 69Z" fill="#7ba4e6"></path><path d="M0 298L14.5 301.7C29 305.3 58 312.7 87.2 311.8C116.3 311 145.7 302 174.8 297.5C204 293 233 293 262 305.5C291 318 320 343 349 353.7C378 364.3 407 360.7 436.2 354.3C465.3 348 494.7 339 523.8 333.7C553 328.3 582 326.7 611 330.3C640 334 669 343 698 343C727 343 756 334 785.2 327.7C814.3 321.3 843.7 317.7 872.8 315C902 312.3 931 310.7 945.5 309.8L960 309L960 183L945.5 192.8C931 202.7 902 222.3 872.8 225C843.7 227.7 814.3 213.3 785.2 216C756 218.7 727 238.3 698 238.3C669 238.3 640 218.7 611 219.7C582 220.7 553 242.3 523.8 249.5C494.7 256.7 465.3 249.3 436.2 244.8C407 240.3 378 238.7 349 235C320 231.3 291 225.7 262 219.3C233 213 204 206 174.8 209.7C145.7 213.3 116.3 227.7 87.2 226.7C58 225.7 29 209.3 14.5 201.2L0 193Z" fill="#6194e1"></path><path d="M0 492L14.5 492C29 492 58 492 87.2 486.7C116.3 481.3 145.7 470.7 174.8 465.3C204 460 233 460 262 464.5C291 469 320 478 349 479.8C378 481.7 407 476.3 436.2 472.7C465.3 469 494.7 467 523.8 471.5C553 476 582 487 611 490.7C640 494.3 669 490.7 698 485.2C727 479.7 756 472.3 785.2 469.7C814.3 467 843.7 469 872.8 471.8C902 474.7 931 478.3 945.5 480.2L960 482L960 307L945.5 307.8C931 308.7 902 310.3 872.8 313C843.7 315.7 814.3 319.3 785.2 325.7C756 332 727 341 698 341C669 341 640 332 611 328.3C582 324.7 553 326.3 523.8 331.7C494.7 337 465.3 346 436.2 352.3C407 358.7 378 362.3 349 351.7C320 341 291 316 262 303.5C233 291 204 291 174.8 295.5C145.7 300 116.3 309 87.2 309.8C58 310.7 29 303.3 14.5 299.7L0 296Z" fill="#537fc5"></path><path d="M0 541L14.5 541C29 541 58 541 87.2 541C116.3 541 145.7 541 174.8 541C204 541 233 541 262 541C291 541 320 541 349 541C378 541 407 541 436.2 541C465.3 541 494.7 541 523.8 541C553 541 582 541 611 541C640 541 669 541 698 541C727 541 756 541 785.2 541C814.3 541 843.7 541 872.8 541C902 541 931 541 945.5 541L960 541L960 480L945.5 478.2C931 476.3 902 472.7 872.8 469.8C843.7 467 814.3 465 785.2 467.7C756 470.3 727 477.7 698 483.2C669 488.7 640 492.3 611 488.7C582 485 553 474 523.8 469.5C494.7 465 465.3 467 436.2 470.7C407 474.3 378 479.7 349 477.8C320 476 291 467 262 462.5C233 458 204 458 174.8 463.3C145.7 468.7 116.3 479.3 87.2 484.7C58 490 29 490 14.5 490L0 490Z" fill="#456ba9"></path></svg>