<svg id="visual" viewBox="0 0 960 540" width="960" height="540" xmlns="http://www.w3.org/2000/svg" xmlns:xlink="http://www.w3.org/1999/xlink" version="1.1"><path d="M0 217L87 125L175 125L262 141L349 104L436 120L524 131L611 168L698 185L785 185L873 206L960 131L960 0L873 0L785 0L698 0L611 0L524 0L436 0L349 0L262 0L175 0L87 0L0 0Z" fill="#193b51"></path><path d="M0 298L87 195L175 271L262 239L349 244L436 217L524 282L611 266L698 320L785 271L873 363L960 260L960 129L873 204L785 183L698 183L611 166L524 129L436 118L349 102L262 139L175 123L87 123L0 215Z" fill="#4d8589"></path><path d="M0 336L87 282L175 330L262 341L349 314L436 287L524 357L611 347L698 379L785 347L873 406L960 325L960 258L873 361L785 269L698 318L611 264L524 280L436 215L349 242L262 237L175 269L87 193L0 296Z" fill="#81b4a5"></path><path d="M0 411L87 341L175 401L262 411L349 363L436 368L524 395L611 395L698 465L785 390L873 471L960 374L960 323L873 404L785 345L698 377L611 345L524 355L436 285L349 312L262 339L175 328L87 280L0 334Z" fill="#4d8589"></path><path d="M0 541L87 541L175 541L262 541L349 541L436 541L524 541L611 541L698 541L785 541L873 541L960 541L960 372L873 469L785 388L698 463L611 393L524 393L436 366L349 361L262 409L175 399L87 339L0 409Z" fill="#193b51"></path></svg>